<svg width="19" height="19" viewBox="0 0 19 19" fill="none" xmlns="http://www.w3.org/2000/svg">
<mask id="path-1-inside-1_1193_687" fill="white">
<path d="M9.41793 9.48698C10.8718 9.48698 12.2662 8.98722 13.2942 8.09764C14.3223 7.20807 14.8998 6.00154 14.8998 4.74349C14.8998 3.48544 14.3223 2.27891 13.2942 1.38934C12.2662 0.499759 10.8718 0 9.41793 0C7.96403 0 6.56969 0.499759 5.54163 1.38934C4.51357 2.27891 3.93601 3.48544 3.93601 4.74349C3.93601 6.00154 4.51357 7.20807 5.54163 8.09764C6.56969 8.98722 7.96403 9.48698 9.41793 9.48698ZM18.8359 18.974C18.8359 15.3025 14.6148 12.3331 9.41793 12.3331C4.22107 12.3331 0 15.3025 0 18.974"/>
</mask>
<path d="M9.41793 9.48698V10.487V9.48698ZM14.8998 4.74349H13.8998H14.8998ZM3.93601 4.74349H2.93601H3.93601ZM17.8359 18.974C17.8359 19.5262 18.2836 19.974 18.8359 19.974C19.3881 19.974 19.8359 19.5262 19.8359 18.974H17.8359ZM-1 18.974C-1 19.5262 -0.552285 19.974 0 19.974C0.552285 19.974 1 19.5262 1 18.974H-1ZM9.41793 10.487C11.0941 10.487 12.7256 9.91211 13.9486 8.85384L12.6399 7.34144C11.8068 8.06232 10.6496 8.48698 9.41793 8.48698V10.487ZM13.9486 8.85384C15.1761 7.79164 15.8998 6.3173 15.8998 4.74349H13.8998C13.8998 5.68578 13.4684 6.62449 12.6399 7.34144L13.9486 8.85384ZM15.8998 4.74349C15.8998 3.16968 15.1761 1.69534 13.9486 0.633135L12.6399 2.14554C13.4684 2.86249 13.8998 3.80119 13.8998 4.74349H15.8998ZM13.9486 0.633135C12.7256 -0.425137 11.0941 -1 9.41793 -1V1C10.6496 1 11.8068 1.42465 12.6399 2.14554L13.9486 0.633135ZM9.41793 -1C7.7418 -1 6.1103 -0.425137 4.88729 0.633135L6.19597 2.14554C7.02907 1.42465 8.18627 1 9.41793 1V-1ZM4.88729 0.633135C3.65973 1.69534 2.93601 3.16968 2.93601 4.74349H4.93601C4.93601 3.80119 5.36741 2.86249 6.19597 2.14554L4.88729 0.633135ZM2.93601 4.74349C2.93601 6.3173 3.65973 7.79164 4.88729 8.85384L6.19597 7.34144C5.36741 6.62449 4.93601 5.68578 4.93601 4.74349H2.93601ZM4.88729 8.85384C6.1103 9.91211 7.7418 10.487 9.41793 10.487V8.48698C8.18627 8.48698 7.02907 8.06232 6.19597 7.34144L4.88729 8.85384ZM19.8359 18.974C19.8359 16.7255 18.5418 14.791 16.6517 13.4593C14.7591 12.1257 12.1978 11.3331 9.41793 11.3331V13.3331C11.8349 13.3331 13.9826 14.0252 15.4997 15.0942C17.0194 16.165 17.8359 17.551 17.8359 18.974H19.8359ZM9.41793 11.3331C6.63806 11.3331 4.0768 12.1257 2.18415 13.4593C0.294101 14.791 -1 16.7255 -1 18.974H1C1 17.551 1.81644 16.165 3.33614 15.0942C4.85324 14.0252 7.00094 13.3331 9.41793 13.3331V11.3331Z" fill="white" mask="url(#path-1-inside-1_1193_687)"/>
</svg>
